<svg width="12" height="12" viewBox="0 0 20 18" fill="none" xmlns="http://www.w3.org/2000/svg">
<path d="M17.5 17.334C17.3905 17.3344 17.2821 17.313 17.181 17.2711C17.0799 17.2292 16.9881 17.1677 16.911 17.09L11.387 11.567C10.8343 11.8662 10.1998 11.979 9.57784 11.8884C8.95592 11.7979 8.37987 11.5089 7.93547 11.0645C7.49107 10.6201 7.20208 10.044 7.11154 9.42212C7.02099 8.8002 7.13372 8.16567 7.43296 7.613L1.90996 2.09C1.75361 1.93379 1.66573 1.72187 1.66563 1.50085C1.66554 1.27984 1.75324 1.06785 1.90946 0.911501C2.06567 0.755156 2.27759 0.667269 2.4986 0.667175C2.71961 0.667082 2.93161 0.754788 3.08796 0.911001L18.088 15.911C18.2044 16.0275 18.2838 16.1759 18.3159 16.3375C18.3481 16.4991 18.3316 16.6666 18.2685 16.8188C18.2055 16.971 18.0987 17.1011 17.9617 17.1926C17.8247 17.2841 17.6637 17.333 17.499 17.333L17.5 17.334ZM8.75196 8.934C8.75196 8.959 8.75196 8.981 8.75196 9.003C8.75249 9.33436 8.88435 9.65199 9.11866 9.8863C9.35296 10.1206 9.6706 10.2525 10.002 10.253H10.071L8.75096 8.931L8.75196 8.934ZM9.99996 14.834C7.61123 14.7088 5.3403 13.7572 3.57596 12.142C2.90862 11.5881 2.28232 10.9865 1.70196 10.342C1.51996 10.142 1.34696 9.942 1.18896 9.742L1.08896 9.622L1.05096 9.567L1.01896 9.526L1.01396 9.519L1.00296 9.505V9.5C1.0123 9.49121 1.02233 9.48318 1.03296 9.476L1.56196 9.076L1.00096 9.495C0.893636 9.35039 0.835693 9.17508 0.835693 8.995C0.835693 8.81492 0.893636 8.63961 1.00096 8.495L1.66896 8.995L1.00096 8.495V8.489L1.01196 8.476V8.471L1.04496 8.428C1.07696 8.387 1.12296 8.328 1.18296 8.255C1.28896 8.124 1.46496 7.913 1.69596 7.655C2.27631 7.01051 2.90262 6.40893 3.56996 5.855C3.74062 5.71324 3.96061 5.64509 4.18153 5.66553C4.40245 5.68597 4.6062 5.79333 4.74796 5.964C4.88972 6.13467 4.95787 6.35466 4.93743 6.57558C4.91699 6.79649 4.80962 7.00024 4.63896 7.142C4.03392 7.64529 3.46579 8.19136 2.93896 8.776C2.86696 8.856 2.80096 8.931 2.73896 9C2.79796 9.068 2.86296 9.141 2.93896 9.224C3.46579 9.80864 4.03392 10.3547 4.63896 10.858C6.11609 12.2077 8.00442 13.021 9.99996 13.167C10.4938 13.165 10.9855 13.1021 11.464 12.98C11.6238 12.9403 11.7918 12.9489 11.9468 13.0045C12.1018 13.0602 12.2368 13.1605 12.3349 13.2928C12.433 13.4251 12.4897 13.5834 12.4979 13.7479C12.5061 13.9124 12.4654 14.0756 12.381 14.217C12.325 14.3111 12.2509 14.3931 12.1631 14.4583C12.0752 14.5236 11.9752 14.5707 11.869 14.597C11.258 14.752 10.6303 14.8316 9.99996 14.834ZM15.893 12.334C15.7213 12.3345 15.5537 12.2819 15.4131 12.1834C15.2724 12.085 15.1656 11.9455 15.1073 11.7841C15.049 11.6227 15.0419 11.4471 15.0872 11.2815C15.1324 11.116 15.2277 10.9684 15.36 10.859C15.965 10.3557 16.5331 9.80964 17.06 9.225C17.132 9.145 17.198 9.07 17.26 9.001C17.201 8.933 17.136 8.859 17.06 8.777C16.5331 8.19236 15.965 7.64629 15.36 7.143C13.883 5.79392 11.995 4.98098 9.99996 4.835C9.50996 4.83735 9.02207 4.89913 8.54696 5.019C8.44031 5.04604 8.32936 5.05169 8.22052 5.03562C8.11167 5.01954 8.00709 4.98206 7.91282 4.92535C7.81854 4.86863 7.73643 4.7938 7.67123 4.70518C7.60603 4.61655 7.55904 4.51589 7.53296 4.409C7.47978 4.19457 7.51397 3.96781 7.62799 3.77858C7.74201 3.58936 7.92653 3.45318 8.14096 3.4C8.74881 3.24688 9.37311 3.16863 9.99996 3.167C12.3848 3.30893 14.6504 4.25832 16.424 5.859C17.0913 6.41293 17.7176 7.01451 18.298 7.659C18.529 7.916 18.705 8.126 18.811 8.259C18.87 8.332 18.916 8.39 18.949 8.432L18.981 8.475V8.481L18.992 8.495C18.992 8.495 18.992 8.495 18.336 8.988L18.994 8.498C19.1017 8.64242 19.16 8.8178 19.16 8.998C19.16 9.1782 19.1017 9.35358 18.994 9.498V9.505L18.983 9.518V9.523L18.95 9.566L18.909 9.617L18.809 9.739C18.651 9.933 18.478 10.139 18.296 10.339C17.7156 10.9835 17.0893 11.5851 16.422 12.139C16.2733 12.2637 16.0859 12.3326 15.892 12.334H15.893Z" fill="#1F1F39"/>
</svg>
